<svg width="106" height="32" viewBox="0 0 106 32" fill="none" xmlns="http://www.w3.org/2000/svg">
<path d="M100.502 27.3781C102.565 27.3781 104.029 27.0032 105.116 26.2151V22.5765C103.99 23.3634 102.641 23.852 100.765 23.852C97.5755 23.852 96.2617 21.3763 96.2617 17.4742C96.2617 13.3863 97.8761 11.2844 100.802 11.2844C102.528 11.2844 104.216 11.8856 105.116 12.4474V8.659C104.178 8.13325 102.528 7.75835 100.315 7.75835C94.6123 7.75835 91.648 11.8463 91.648 17.5868C91.648 23.8903 94.5369 27.3781 100.502 27.3781ZM72.5901 25.7276V22.089C71.2019 23.0268 68.876 23.852 66.7009 23.852C63.4371 23.852 62.1976 22.3141 62.0118 19.163H72.7781V16.7987C72.7781 10.234 69.8892 7.75835 65.4253 7.75835C59.9853 7.75835 57.3971 11.9228 57.3971 17.6251C57.3971 24.1898 60.6226 27.3781 66.3249 27.3781C69.1766 27.3781 71.2774 26.6283 72.5901 25.7276ZM31.699 8.13325V15.5986H25.7333V8.13325H21.2704V27.0032H25.7344V19.1258H31.7001V27.0032H36.164V8.13325H31.7001H31.699ZM56.3084 23.4771H54.3202V8.13325H41.3023V9.74656C41.3023 14.3613 41.0028 20.3259 39.4267 23.4771H38.0385V31.3163H42.1658V27.0021H52.1822V31.3163H56.3084V23.476V23.4771ZM86.8464 27.0032H91.9104L84.7456 16.837L91.048 8.13325H86.5458L80.2434 16.837V8.13325H75.7795V27.0032H80.2434V17.7376L86.8453 27.0032H86.8464ZM65.3499 11.2855C67.5633 11.2855 68.2388 13.1218 68.2388 15.486V15.8609H62.0107C62.1233 12.8606 63.2119 11.2844 65.3499 11.2844V11.2855ZM49.8563 23.476H43.5539C44.7912 20.6243 45.129 15.486 45.129 12.2212V11.6583H49.8563V23.476Z" fill="black"/>
<path d="M17.5181 27.0032H12.9788V4.45633H10.9534C7.23932 4.45633 5.28827 6.33196 5.28827 9.10824C5.28827 12.2594 6.63815 13.723 9.41443 15.5986L11.7032 17.1365L5.10136 27.0032H0.186035L6.1135 18.1869C2.69999 15.7494 0.786105 13.3852 0.786105 9.37166C0.786105 4.34375 4.27504 0.930237 10.9152 0.930237H17.5181V27.0032Z" fill="#FC3F1D"/>
</svg>
